<svg version="1.1" id="Layer_1" xmlns="http://www.w3.org/2000/svg" xmlns:xlink="http://www.w3.org/1999/xlink" viewBox="0 0 512.016 512.016" xml:space="preserve" fill="#45791b" stroke="#45791b"><g id="SVGRepo_bgCarrier" stroke-width="0"></g><g id="SVGRepo_tracerCarrier" stroke-linecap="round" stroke-linejoin="round" stroke="#030303" stroke-width="102.4032"> <circle cx="377.128" cy="450.56" r="61.456"></circle> <circle style="fill:#999999;" cx="377.128" cy="450.56" r="29.856"></circle> <polygon points="145.544,151.36 105.184,31.92 0.68,31.92 0.68,0 128.096,0 175.784,141.136 "></polygon> <circle cx="191.752" cy="450.56" r="61.456"></circle> <polygon style="fill:#ffffff;" points="147.824,353.584 78.992,132.552 499.992,132.552 421.208,353.584 "></polygon> <path style="fill:#0f8000;" d="M488.648,140.56L415.576,345.6H153.712L89.864,140.56L488.648,140.56 M511.336,124.56H68.128 l73.808,237.04h284.92L511.336,124.56z"></path> <circle style="fill:#999999;" cx="191.752" cy="450.56" r="29.856"></circle> <rect x="406.144" y="212.1" transform="matrix(0.7071 -0.7071 0.7071 0.7071 -60.2297 374.6635)" width="32" height="95.871"></rect> <path style="fill:#ffffff;" d="M329.608,245.6c-53.016,0-96-42.984-96-96s42.984-96,96-96s96,42.984,96,96 C425.552,202.592,382.6,245.544,329.608,245.6z"></path> <path style="fill:#0f8000;" d="M329.608,65.6c46.392,0,84,37.608,84,84s-37.608,84-84,84s-84-37.608-84-84 C245.664,103.232,283.24,65.656,329.608,65.6 M329.608,41.6c-59.648,0-108,48.352-108,108s48.352,108,108,108s108-48.352,108-108 S389.256,41.6,329.608,41.6L329.608,41.6z"></path> </g><g id="SVGRepo_iconCarrier"> <circle cx="377.128" cy="450.56" r="61.456"></circle> <circle style="fill:#999999;" cx="377.128" cy="450.56" r="29.856"></circle> <polygon points="145.544,151.36 105.184,31.92 0.68,31.92 0.68,0 128.096,0 175.784,141.136 "></polygon> <circle cx="191.752" cy="450.56" r="61.456"></circle> <polygon style="fill:#ffffff;" points="147.824,353.584 78.992,132.552 499.992,132.552 421.208,353.584 "></polygon> <path style="fill:#0f8000;" d="M488.648,140.56L415.576,345.6H153.712L89.864,140.56L488.648,140.56 M511.336,124.56H68.128 l73.808,237.04h284.92L511.336,124.56z"></path> <circle style="fill:#999999;" cx="191.752" cy="450.56" r="29.856"></circle> <rect x="406.144" y="212.1" transform="matrix(0.7071 -0.7071 0.7071 0.7071 -60.2297 374.6635)" width="32" height="95.871"></rect> <path style="fill:#ffffff;" d="M329.608,245.6c-53.016,0-96-42.984-96-96s42.984-96,96-96s96,42.984,96,96 C425.552,202.592,382.6,245.544,329.608,245.6z"></path> <path style="fill:#0f8000;" d="M329.608,65.6c46.392,0,84,37.608,84,84s-37.608,84-84,84s-84-37.608-84-84 C245.664,103.232,283.24,65.656,329.608,65.6 M329.608,41.6c-59.648,0-108,48.352-108,108s48.352,108,108,108s108-48.352,108-108 S389.256,41.6,329.608,41.6L329.608,41.6z"></path> </g></svg>